<?xml version="1.0" encoding="utf-8"?>
<!-- Generator: Adobe Illustrator 18.1.1, SVG Export Plug-In . SVG Version: 6.00 Build 0)  -->
<svg version="1.1" id="Layer_1" xmlns="http://www.w3.org/2000/svg" xmlns:xlink="http://www.w3.org/1999/xlink" x="0px" y="0px"
	 viewBox="0 0 112.1 59.1" enable-background="new 0 0 112.1 59.1" xml:space="preserve">
<g>
	<path fill="#FFFFFF" d="M55.2,31.5c0,15.3-12.4,27.6-27.6,27.6C12.4,59.1,0,46.8,0,31.5S12.4,3.9,27.6,3.9
		C42.9,3.9,55.2,16.3,55.2,31.5z M14.3,47.3c0,1.1,0.2,2,0.6,3c0.4,0.9,1,1.7,1.9,2.4c0.9,0.7,2,1.2,3.4,1.6c1.4,0.4,3,0.6,4.9,0.6
		c3.7,0,6.4-0.7,8.1-2.2c1.7-1.5,2.6-3.3,2.7-5.5V8.5h-5.4v8.1v1.2c0,0.5-0.1,0.9-0.3,1.3c-0.2,0.4-0.4,0.7-0.7,1
		c-0.3,0.3-0.5,0.5-0.8,0.7c-0.3,0.1-0.5,0.3-0.7,0.3c-0.2,0-0.6,0.2-1.3,0.4c-0.7,0.3-1.5,0.5-2.3,0.9c-0.9,0.3-1.8,0.6-2.8,1
		c-1,0.3-1.8,0.6-2.6,0.9c-1.6,0.5-2.8,1.5-3.6,2.8c-0.8,1.3-1.2,2.8-1.2,4.4L14.3,47.3z M22.6,49.9c-0.7-0.2-1.2-0.5-1.6-0.9
		c-0.4-0.4-0.7-0.8-0.9-1.3c-0.2-0.5-0.3-1-0.3-1.6V32.9v-0.3c0-0.8,0.2-1.5,0.5-2c0.3-0.5,0.7-1,1-1.3c0.5-0.4,0.9-0.7,1.5-0.9
		c0.7-0.3,1.4-0.5,2.2-0.8c0.6-0.2,1.3-0.4,2.1-0.7c0.7-0.3,1.4-0.5,2.1-0.7c0.3-0.1,0.7-0.2,1-0.4c0.3-0.2,0.5-0.5,0.6-1v21.6
		c0,0.4-0.1,0.9-0.3,1.3c-0.2,0.5-0.5,0.9-0.9,1.3c-0.4,0.4-0.9,0.7-1.6,0.9c-0.7,0.2-1.6,0.3-2.6,0.3
		C24.1,50.2,23.3,50.1,22.6,49.9z M56.8,50.8c0,3.9,2.6,6.4,6.8,6.4c4.1,0,6.7-2.4,6.7-6.4v-5.4c0-1.1-0.9-2-2-2h-1.4
		c-1.1,0-2,0.9-2,2v5.3c0,1.7-0.5,1.8-1.3,1.8c-0.8,0-1.3-0.1-1.3-1.8V16.3c0-2,0.6-2.3,1.3-2.3c0.7,0,1.3,0.3,1.3,2.3v7.8
		c0,1.1,0.9,2,2,2h1.4c1.1,0,2-0.9,2-2v-8.4c0-3.9-2.6-6.4-6.7-6.4c-4.2,0-6.8,2.5-6.8,6.4V50.8z M80.6,41v9.7
		c0,1.7-0.5,1.8-1.3,1.8c-0.8,0-1.3-0.1-1.3-1.8v-21H84c1.1,0,2-0.9,2-2v-12c0-3.9-2.6-6.4-6.7-6.4c-4.2,0-6.8,2.5-6.8,6.4v35.1
		c0,3.9,2.6,6.4,6.8,6.4c4.1,0,6.7-2.4,6.7-6.4V41c0-1.1-0.9-2-2-2h-1.4C81.5,39,80.6,39.9,80.6,41z M80.6,25.2H78v-9.4
		c0-1.7,0.5-1.9,1.3-1.9c0.8,0,1.3,0.2,1.3,1.9L80.6,25.2L80.6,25.2z M90.3,56.7h1.4c1.1,0,2-0.9,2-2V17.1c0-1.1,0.1-2.3,1.4-2.3
		c1.1,0,1.2,1.2,1.2,2.3v33.2c0,1.1,0.9,2,2,2h1.4c1.1,0,2-0.9,2-2V16.2c0-4-0.1-6.9-4.2-6.9c-1.5,0-2.9,0.9-3.7,2.7h-0.2l-0.4-1.5
		c-0.1-0.4-0.4-0.7-0.8-0.7h-2.2c-1.1,0-2,0.9-2,2v43C88.3,55.8,89.2,56.7,90.3,56.7z M109,0.2l-3.2,1.9c-0.6,0.3-0.9,0.9-0.9,1.7
		v14.9h-0.7c-0.5,0-0.9,0.4-0.9,0.9v3.3c0,0.5,0.4,0.9,0.9,0.9h0.7v28c0,1.4,0.7,5.1,4.1,5.1h1.1c1.1,0,2-0.9,2-2v-2.5
		c0-0.3-0.3-0.6-0.6-0.6c-0.6,0-1.2-0.2-1.2-3.1V23.7h0.8c0.5,0,0.9-0.4,0.9-0.9v-3.3c0-0.5-0.4-0.9-0.9-0.9h-0.8V0.9
		c0-0.6-0.4-0.9-0.9-0.9C109.3,0,109.2,0.1,109,0.2z M41,35h8.2c0.5,0,0.9-0.4,0.9-0.9v-3c0-0.5-0.4-0.9-0.9-0.9H41
		c-0.5,0-0.9,0.4-0.9,0.9v3C40.1,34.6,40.5,35,41,35z"/>
</g>
</svg>
