<?xml version="1.0" encoding="UTF-8" standalone="no"?>
<svg width="848px" height="184px" viewBox="0 0 848 184" version="1.1" xmlns="http://www.w3.org/2000/svg" xmlns:xlink="http://www.w3.org/1999/xlink" xmlns:sketch="http://www.bohemiancoding.com/sketch/ns">
    <!-- Generator: Sketch 3.3.2 (12043) - http://www.bohemiancoding.com/sketch -->
    <title>logo</title>
    <desc>Created with Sketch.</desc>
    <defs>
        <path d="M4.82052496,21.6907497 C2.05316889,32.7027877 0.584066151,44.2253588 0.584066151,56.0887581 C0.584066151,111.18485 32.2706528,158.92973 78.5299497,182.324186 C123.781255,158.602453 154.624523,111.400044 154.624523,57.0420702 C154.624523,43.7101136 152.769191,30.8085895 149.301002,18.5783489 C128.721775,7.1211808 104.988477,0.588967908 79.7192084,0.588967908 C52.2437719,0.588967908 26.5842146,8.31157922 4.82052496,21.6907497 Z" id="path-1"></path>
        <path d="M33.7498883,43.5937557 L68.5403073,78.3841747 L30.8623559,116.062126 C28.5317337,118.392748 28.5344677,122.17225 30.86728,124.505063 C33.1953455,126.833128 36.9801238,126.840079 39.3102165,124.509987 L76.9881679,86.8320353 L105.195264,115.039132 C107.512991,117.356858 111.737704,120.451385 114.637511,121.957037 C114.637511,121.957037 123.530721,126.757039 124.166769,126.120991 C124.451812,125.835948 118.776842,115.976717 118.776842,115.976717 C117.163998,113.125459 114.000508,108.928707 111.715397,106.58954 L84.7914866,79.0287166 L105.519397,58.3008059 L118.921669,71.7030782 C122.049939,74.8313477 127.113763,74.8318505 130.236725,71.7088888 L136.798879,65.1467343 C139.921415,62.0241988 139.91924,56.9578497 136.793069,53.8316789 L123.3494,40.3880098 C125.11044,38.0497587 124.924057,34.7108968 122.792752,32.5795911 C120.665822,30.4526617 117.323016,30.2631008 114.984446,32.0230561 L107.634603,24.6732128 C104.506333,21.5449433 99.442509,21.5444405 96.3195473,24.6674022 L89.7573928,31.2295567 C86.6348573,34.3520922 86.6370326,39.4184413 89.7632034,42.5446121 L97.0715367,49.8529453 L97.0715367,49.8529453 L76.4423793,70.4821027 L76.4423793,70.4821027 L44.7911522,38.0821333 L40.4505122,25.5393281 C39.5471257,22.9288832 37.2310389,22.3941019 35.2781313,24.3470095 L29.6140526,30.0110882 C29.4287735,30.1565318 29.2500793,30.3147211 29.0791289,30.4856716 L29.0544824,30.5103181 C28.8832808,30.6815196 28.7247274,30.8605736 28.5788221,31.0463186 L24.1227658,35.5023749 C22.1723961,37.4527447 22.7036775,39.7710363 25.3150844,40.6747558 L33.7498883,43.5937557 Z" id="path-2"></path>
    </defs>
    <g id="Page-2" stroke="none" stroke-width="1" fill="none" fill-rule="evenodd" sketch:type="MSPage">
        <g id="logo" sketch:type="MSLayerGroup">
            <g id="Logo-Copy-2" transform="translate(0.678362, 0.592637)">
                <g id="Oval-1-Copy-15">
                    <use stroke="none" fill="#00D4CA" fill-rule="evenodd" sketch:type="MSShapeGroup" xlink:href="#path-1"></use>
                    <use stroke="none" fill="none" xlink:href="#path-1"></use>
                    <use stroke="#FFFFFF" stroke-width="1" fill="none" xlink:href="#path-1"></use>
                </g>
                <g id="scalpello-copy-11">
                    <use stroke="none" fill="#FFFFFF" fill-rule="evenodd" sketch:type="MSShapeGroup" xlink:href="#path-2"></use>
                    <use stroke="none" fill="none" xlink:href="#path-2"></use>
                    <use stroke="#FFFFFF" stroke-width="1" fill="none" xlink:href="#path-2"></use>
                </g>
            </g>
            <path d="M232.015625,127.794922 L232.015625,103.527344 L203.988281,103.527344 L191,90.5390625 L191,75.9394531 L203.988281,63 L211.3125,63 L211.3125,85.9980469 L241.097656,85.9980469 L253.646484,98.9863281 L253.646484,114.855469 L240.707031,127.794922 L232.015625,127.794922 Z M214.730469,74.6699219 L214.730469,63 L240.658203,63 L251.888672,74.2792969 L251.888672,81.1640625 L232.015625,81.1640625 L232.015625,74.6699219 L214.730469,74.6699219 Z M191,108.361328 L212.582031,108.361328 L212.582031,116.076172 L228.597656,116.076172 L228.597656,127.794922 L201.888672,127.794922 L191,114.855469 L191,108.361328 Z M285.628906,114.855469 L299.886719,114.855469 L299.886719,127.794922 L277.035156,127.794922 L264.046875,114.855469 L264.046875,88.8789062 L259.75,88.8789062 L259.75,75.9394531 L264.046875,75.9394531 L264.046875,70.3242188 L285.628906,63 L285.628906,114.855469 Z M289.046875,88.8789062 L289.046875,75.9394531 L300.667969,75.9394531 L300.667969,88.8789062 L289.046875,88.8789062 Z M365.951172,114.855469 L353.011719,127.794922 L338.558594,127.794922 L338.558594,115.685547 L343.929688,115.685547 L343.929688,88.8789062 L338.558594,88.8789062 L338.558594,75.9394531 L353.011719,75.9394531 L365.951172,88.8789062 L365.951172,114.855469 Z M329.525391,115.685547 L335.140625,115.685547 L335.140625,127.794922 L320.638672,127.794922 L307.699219,114.855469 L307.699219,88.8789062 L320.638672,75.9394531 L335.140625,75.9394531 L335.140625,88.8789062 L329.525391,88.8789062 L329.525391,115.685547 Z M375.667969,127.794922 L375.667969,75.9394531 L397.445312,75.9394531 L397.445312,127.794922 L375.667969,127.794922 Z M410.238281,88.8789062 L400.960938,88.8789062 L400.960938,83.2148438 L408.1875,75.9394531 L420.199219,75.9394531 L431.869141,87.609375 L431.869141,127.794922 L410.238281,127.794922 L410.238281,88.8789062 Z M463.021484,127.794922 L454.378906,127.794922 L441.439453,114.855469 L441.439453,88.8789062 L454.378906,75.9394531 L463.021484,75.9394531 L463.021484,127.794922 Z M466.439453,106.994141 L466.439453,97.9609375 L477.816406,97.9609375 L477.816406,88.8789062 L466.439453,88.8789062 L466.439453,75.9394531 L484.75,75.9394531 L497.689453,88.8789062 L497.689453,106.994141 L466.439453,106.994141 Z M466.439453,127.794922 L466.439453,115.685547 L495.443359,115.685547 L495.443359,121.300781 L488.998047,127.794922 L466.439453,127.794922 Z M528.011719,127.794922 L519.369141,127.794922 L506.429688,114.855469 L506.429688,88.8789062 L519.369141,75.9394531 L528.011719,75.9394531 L528.011719,127.794922 Z M531.429688,88.8789062 L531.429688,75.9394531 L549.642578,75.9394531 L562.582031,88.8789062 L562.582031,96.6425781 L541,96.6425781 L541,88.8789062 L531.429688,88.8789062 Z M531.429688,127.794922 L531.429688,115.685547 L541,115.685547 L541,109.191406 L562.582031,109.191406 L562.582031,114.855469 L549.642578,127.794922 L531.429688,127.794922 Z M627.230469,75.9394531 L627.230469,127.794922 L605.648438,127.794922 L605.648438,75.9394531 L627.230469,75.9394531 Z M592.611328,114.855469 L602.230469,114.855469 L602.230469,121.300781 L595.980469,127.794922 L584.017578,127.794922 L571.029297,114.855469 L571.029297,75.9394531 L592.611328,75.9394531 L592.611328,114.855469 Z M659.554688,114.855469 L673.8125,114.855469 L673.8125,127.794922 L650.960938,127.794922 L637.972656,114.855469 L637.972656,88.8789062 L633.675781,88.8789062 L633.675781,75.9394531 L637.972656,75.9394531 L637.972656,70.3242188 L659.554688,63 L659.554688,114.855469 Z M662.972656,88.8789062 L662.972656,75.9394531 L674.59375,75.9394531 L674.59375,88.8789062 L662.972656,88.8789062 Z M704.232422,114.855469 L718.490234,114.855469 L718.490234,127.794922 L695.638672,127.794922 L682.650391,114.855469 L682.650391,88.8789062 L678.353516,88.8789062 L678.353516,75.9394531 L682.650391,75.9394531 L682.650391,70.3242188 L704.232422,63 L704.232422,114.855469 Z M707.650391,88.8789062 L707.650391,75.9394531 L719.271484,75.9394531 L719.271484,88.8789062 L707.650391,88.8789062 Z M747.884766,127.794922 L739.242188,127.794922 L726.302734,114.855469 L726.302734,88.8789062 L739.242188,75.9394531 L747.884766,75.9394531 L747.884766,127.794922 Z M751.302734,106.994141 L751.302734,97.9609375 L762.679688,97.9609375 L762.679688,88.8789062 L751.302734,88.8789062 L751.302734,75.9394531 L769.613281,75.9394531 L782.552734,88.8789062 L782.552734,106.994141 L751.302734,106.994141 Z M751.302734,127.794922 L751.302734,115.685547 L780.306641,115.685547 L780.306641,121.300781 L773.861328,127.794922 L751.302734,127.794922 Z M825.960938,88.8789062 L816.78125,88.8789062 L816.78125,83.2148438 L824.007812,75.9394531 L837.09375,75.9394531 L847.591797,88.0488281 L847.591797,101.476562 L825.960938,101.476562 L825.960938,88.8789062 Z M791.732422,127.794922 L791.732422,75.9394531 L813.314453,75.9394531 L813.314453,127.794922 L791.732422,127.794922 Z" id="Stonecutter-Copy-3" fill="#AAAAAA" sketch:type="MSShapeGroup"></path>
        </g>
    </g>
</svg>