<svg xmlns="http://www.w3.org/2000/svg" viewBox="0 0 112.1 59.1" enable-background="new 0 0 112.1 59.1"><path fill="#fff" d="M55.2 31.5c0 15.3-12.4 27.6-27.6 27.6C12.4 59.1 0 46.8 0 31.5S12.4 3.9 27.6 3.9c15.3 0 27.6 12.4 27.6 27.6zM14.3 47.3c0 1.1.2 2 .6 3 .4.9 1 1.7 1.9 2.4.9.7 2 1.2 3.4 1.6 1.4.4 3 .6 4.9.6 3.7 0 6.4-.7 8.1-2.2 1.7-1.5 2.6-3.3 2.7-5.5V8.5h-5.4V17.8c0 .5-.1.9-.3 1.3-.2.4-.4.7-.7 1-.3.3-.5.5-.8.7-.3.1-.5.3-.7.3-.2 0-.6.2-1.3.4-.7.3-1.5.5-2.3.9-.9.3-1.8.6-2.8 1-1 .3-1.8.6-2.6.9-1.6.5-2.8 1.5-3.6 2.8-.8 1.3-1.2 2.8-1.2 4.4l.1 15.8zm8.3 2.6c-.7-.2-1.2-.5-1.6-.9-.4-.4-.7-.8-.9-1.3-.2-.5-.3-1-.3-1.6V32.6c0-.8.2-1.5.5-2s.7-1 1-1.3c.5-.4.9-.7 1.5-.9.7-.3 1.4-.5 2.2-.8.6-.2 1.3-.4 2.1-.7.7-.3 1.4-.5 2.1-.7.3-.1.7-.2 1-.4.3-.2.5-.5.6-1v21.6c0 .4-.1.9-.3 1.3-.2.5-.5.9-.9 1.3s-.9.7-1.6.9c-.7.2-1.6.3-2.6.3-1.3 0-2.1-.1-2.8-.3zm34.2.9c0 3.9 2.6 6.4 6.8 6.4 4.1 0 6.7-2.4 6.7-6.4v-5.4c0-1.1-.9-2-2-2h-1.4c-1.1 0-2 .9-2 2v5.3c0 1.7-.5 1.8-1.3 1.8s-1.3-.1-1.3-1.8V16.3c0-2 .6-2.3 1.3-2.3.7 0 1.3.3 1.3 2.3v7.8c0 1.1.9 2 2 2h1.4c1.1 0 2-.9 2-2v-8.4c0-3.9-2.6-6.4-6.7-6.4-4.2 0-6.8 2.5-6.8 6.4v35.1zM80.6 41v9.7c0 1.7-.5 1.8-1.3 1.8s-1.3-.1-1.3-1.8v-21h6c1.1 0 2-.9 2-2v-12c0-3.9-2.6-6.4-6.7-6.4-4.2 0-6.8 2.5-6.8 6.4v35.1c0 3.9 2.6 6.4 6.8 6.4 4.1 0 6.7-2.4 6.7-6.4V41c0-1.1-.9-2-2-2h-1.4c-1.1 0-2 .9-2 2zm0-15.8H78v-9.4c0-1.7.5-1.9 1.3-1.9s1.3.2 1.3 1.9v9.4zm9.7 31.5h1.4c1.1 0 2-.9 2-2V17.1c0-1.1.1-2.3 1.4-2.3 1.1 0 1.2 1.2 1.2 2.3v33.2c0 1.1.9 2 2 2h1.4c1.1 0 2-.9 2-2V16.2c0-4-.1-6.9-4.2-6.9-1.5 0-2.9.9-3.7 2.7h-.2l-.4-1.5c-.1-.4-.4-.7-.8-.7h-2.2c-1.1 0-2 .9-2 2v43c.1 1 1 1.9 2.1 1.9zM109 .2l-3.2 1.9c-.6.3-.9.9-.9 1.7v14.9h-.7c-.5 0-.9.4-.9.9v3.3c0 .5.4.9.9.9h.7v28c0 1.4.7 5.1 4.1 5.1h1.1c1.1 0 2-.9 2-2v-2.5c0-.3-.3-.6-.6-.6-.6 0-1.2-.2-1.2-3.1v-25h.8c.5 0 .9-.4.9-.9v-3.3c0-.5-.4-.9-.9-.9h-.8V.9c0-.6-.4-.9-.9-.9-.1 0-.2.1-.4.2zM41 35h8.2c.5 0 .9-.4.9-.9v-3c0-.5-.4-.9-.9-.9H41c-.5 0-.9.4-.9.9v3c0 .5.4.9.9.9z"/></svg>