<svg width="848" height="184" viewBox="0 0 848 184" xmlns="http://www.w3.org/2000/svg" xmlns:xlink="http://www.w3.org/1999/xlink"><title>logo</title><desc>Created with Sketch.</desc><defs><path d="M4.82 21.69C2.054 32.704.585 44.226.585 56.09c0 55.095 31.687 102.84 77.946 126.234 45.25-23.722 76.095-70.924 76.095-125.282 0-13.332-1.856-26.233-5.324-38.464C128.723 7.12 104.99.588 79.72.588c-27.476 0-53.136 7.724-74.9 21.103z" id="a"/><path d="M33.75 43.594l34.79 34.79-37.678 37.678c-2.33 2.33-2.328 6.11.005 8.443 2.328 2.328 6.113 2.335 8.443.005l37.678-37.678 28.207 28.207c2.318 2.317 6.543 5.41 9.443 6.917 0 0 8.893 4.8 9.53 4.164.284-.284-5.39-10.143-5.39-10.143-1.614-2.852-4.777-7.048-7.063-9.387L84.79 79.03l20.73-20.73 13.402 13.403c3.128 3.128 8.192 3.13 11.315.006l6.562-6.563c3.12-3.123 3.12-8.19-.007-11.315L123.35 40.388c1.76-2.338 1.574-5.677-.557-7.808-2.127-2.127-5.47-2.317-7.81-.557l-7.348-7.35c-3.13-3.128-8.192-3.13-11.315-.006l-6.563 6.563c-3.122 3.122-3.12 8.188.006 11.315l7.31 7.308-20.63 20.63-31.652-32.4-4.34-12.544c-.903-2.61-3.22-3.146-5.172-1.193l-5.664 5.664c-.185.147-.364.305-.535.476l-.026.024c-.17.172-.33.35-.475.536l-4.457 4.456c-1.95 1.95-1.42 4.27 1.192 5.173l8.435 2.92z" id="b"/></defs><g fill="none"><g><g transform="translate(.678 .593)"><use fill="#00D4CA" xlink:href="#a"/><use xlink:href="#a"/><use stroke="#fff" xlink:href="#a"/></g><g transform="translate(.678 .593)"><use fill="#fff" xlink:href="#b"/><use xlink:href="#b"/><use stroke="#fff" xlink:href="#b"/></g></g><path d="M232.016 127.795v-24.268h-28.028L191 90.54v-14.6L203.988 63h7.325v22.998h29.785l12.548 12.988v15.87l-12.94 12.94h-8.69zM214.73 74.67V63h25.928l11.23 11.28v6.884h-19.872V74.67H214.73zM191 108.36h21.582v7.716h16.016v11.72h-26.71L191 114.855v-6.495zm94.63 6.495h14.257v12.94h-22.852l-12.988-12.94V88.88h-4.297V75.94h4.297v-5.616L285.63 63v51.855zm3.417-25.976V75.94h11.62v12.94h-11.62zm76.904 25.975l-12.938 12.94H338.56v-12.11h5.37V88.88h-5.37V75.94h14.452l12.94 12.94v25.975zm-36.425.83h5.616v12.11h-14.5l-12.94-12.94V88.88l12.94-12.94h14.5v12.94h-5.615v26.806zm46.143 12.11V75.94h21.777v51.855h-21.777zm34.57-38.916h-9.277v-5.665l7.228-7.276h12.01l11.67 11.67v40.185h-21.63V88.88zm52.783 38.915h-8.64l-12.94-12.94V88.88l12.94-12.94h8.64v51.855zm3.42-20.8V97.96h11.376v-9.08H466.44V75.94h18.31l12.94 12.94v18.114h-31.25zm0 20.8v-12.11h29.003v5.616l-6.445 6.495h-22.56zm61.572 0h-8.643l-12.94-12.94V88.88l12.94-12.94h8.642v51.855zm3.418-38.916V75.94h18.213l12.94 12.94v7.763H541V88.88h-9.57zm0 38.915v-12.11H541v-6.494h21.582v5.665l-12.94 12.94H531.43zm95.8-51.856v51.855h-21.582V75.94h21.582zm-34.62 38.915h9.62v6.446l-6.25 6.495h-11.962l-12.99-12.94V75.94h21.583v38.915zm66.945 0h14.258v12.94H650.96l-12.987-12.94V88.88h-4.297V75.94h4.297v-5.616L659.555 63v51.855zm3.418-25.976V75.94h11.62v12.94h-11.62zm41.26 25.975h14.257v12.94h-22.85l-12.99-12.94V88.88h-4.296V75.94h4.296v-5.616L704.232 63v51.855zm3.417-25.976V75.94h11.62v12.94h-11.62zm40.235 38.915h-8.643l-12.94-12.94V88.88l12.94-12.94h8.643v51.855zm3.418-20.8V97.96h11.377v-9.08h-11.377V75.94h18.31l12.94 12.94v18.114h-31.25zm0 20.8v-12.11h29.004v5.616l-6.446 6.495h-22.557zM825.96 88.88h-9.18v-5.665l7.228-7.276h13.086l10.498 12.11v13.427h-21.63V88.88zm-34.228 38.915V75.94h21.582v51.855h-21.582z" fill="#aaa"/></g></svg>